<svg xmlns="http://www.w3.org/2000/svg" width="86" height="32" viewBox="0 0 86 32" fill="none">
  <g clip-path="url(#clip0_2327_2288)">
    <path d="M16.5439 31.4725H21.1078V3.34066H4.81343L0 8.08791V16.1758L4.81343 20.9231H7.7728L4.2073 26.7956L0 27.9209L1.10531 32L7.23798 30.3824L12.9784 20.9231H16.5439V31.4725ZM4.56385 14.4879V9.77583L6.84577 7.52528H16.5439V16.7385H6.84577L4.56385 14.4879Z" fill="white"/>
    <path d="M24.3169 8.79134V26.7254L29.1303 31.4727H38.8998L43.7132 26.7254V16.7386L38.8998 11.9913H28.8807V10.4089L31.1627 8.15837L40.5399 7.03309L44.1768 2.77815L40.8608 0.000127792L38.3293 2.95397L29.1303 4.04408L24.3169 8.79134ZM28.8807 25.0375V18.4265L28.9164 16.176H36.8675L39.1494 18.4265V25.0375L36.8675 27.288H31.1627L28.8807 25.0375Z" fill="white"/>
    <path d="M51.3075 31.4725V22.2945H54.3382L59.4012 30.6286L64.6068 32L65.7121 27.9209L62.4319 27.0418L58.3315 20.2901L65.5695 11.956L62.2536 9.17802L54.4808 18.1099H51.3075V9.67033H46.7437V31.4725H51.3075Z" fill="white"/>
    <path d="M66.6035 14.4177V26.7254L71.4169 31.4727H81.1864L85.9999 26.7254V14.4177L81.1864 9.67046H71.4169L66.6035 14.4177ZM71.1674 25.0375V16.1056L73.4493 13.8551H79.1541L81.436 16.1056V25.0375L79.1541 27.288H73.4493L71.1674 25.0375Z" fill="white"/>
  </g>
    <defs>
    <clipPath id="clip0_2327_2288">
      <rect width="86" height="32" fill="white"/>
    </clipPath>
  </defs>
</svg>